<svg xmlns="http://www.w3.org/2000/svg" viewBox="0 0 800 450" width="800" height="450" fill="none">
  <rect width="800" height="450" fill="#012148"/>
  <defs>
    <pattern id="grid1" width="30" height="30" patternUnits="userSpaceOnUse">
      <path d="M 30 0 L 0 0 0 30" fill="none" stroke="#C6D7EA" stroke-width="0.75" stroke-opacity="0.15"/>
    </pattern>
  </defs>
  <rect width="800" height="450" fill="url(#grid1)"/>
  
  <!-- Window Header -->
  <rect x="40" y="35" width="720" height="40" fill="#012148" stroke="#C6D7EA" stroke-width="1.5"/>
  <circle cx="65" cy="55" r="4" fill="#3300FF"/>
  <circle cx="80" cy="55" r="4" fill="#C6D7EA" fill-opacity="0.6"/>
  <circle cx="95" cy="55" r="4" fill="#C6D7EA" fill-opacity="0.3"/>
  <text x="120" y="59" fill="#C6D7EA" font-family="'IBM Plex Mono', monospace" font-size="12" font-weight="600" letter-spacing="1">HARNESS: LEETCODE_FOR_AI_V1.0 // EVALUATION RUNNER</text>
  <rect x="630" y="44" width="115" height="22" fill="#3300FF"/>
  <text x="642" y="59" fill="#C6D7EA" font-family="'IBM Plex Mono', monospace" font-size="10" font-weight="700">ONLINE 99.8%</text>

  <!-- Code / Test Terminal Area -->
  <rect x="40" y="75" width="440" height="335" fill="#012148" stroke="#C6D7EA" stroke-width="1.5"/>
  <g font-family="'IBM Plex Mono', monospace" font-size="11" fill="#C6D7EA">
    <text x="60" y="115" fill="#3300FF" font-weight="700">&gt; RUN_TEST_SUITE --target=agent_orchestration</text>
    <text x="60" y="145" fill="#C6D7EA" fill-opacity="0.8">TEST 01: Prompt Injection Hardening ......... [PASS 100%]</text>
    <text x="60" y="175" fill="#C6D7EA" fill-opacity="0.8">TEST 02: Multi-Hop Tool Graph Dispatch ...... [PASS 98.4%]</text>
    <text x="60" y="205" fill="#C6D7EA" fill-opacity="0.8">TEST 03: Hallucination Surface Audit ....... [ZERO DETECTED]</text>
    <text x="60" y="235" fill="#C6D7EA" fill-opacity="0.8">TEST 04: Sub-Second OLAP Query Synthesis ... [42ms / OPTIMAL]</text>
    <text x="60" y="265" fill="#C6D7EA" fill-opacity="0.8">TEST 05: Code Critique &amp; Refactor Logic .... [PASS 99.2%]</text>
    <line x1="60" y1="290" x2="450" y2="290" stroke="#C6D7EA" stroke-width="1" stroke-dasharray="4 4" stroke-opacity="0.4"/>
    <text x="60" y="325" fill="#3300FF" font-weight="700">&gt; COMPOSITE READINESS SCORE: 98.6 / 100</text>
    <text x="60" y="355" fill="#C6D7EA" font-weight="600">VERDICT: SENIOR AI INFRASTRUCTURE PRACTITIONER</text>
    <text x="60" y="385" fill="#C6D7EA" fill-opacity="0.6">&gt; READY FOR DEPLOYMENT POD VALIDATION</text>
  </g>

  <!-- Right Visual Metrics Telemetry -->
  <rect x="500" y="75" width="260" height="335" fill="#012148" stroke="#C6D7EA" stroke-width="1.5"/>
  <text x="520" y="110" fill="#C6D7EA" font-family="'IBM Plex Mono', monospace" font-size="11" font-weight="700">COMPETENCY MATRIX</text>

  <!-- Radar Graph Visual Representation -->
  <polygon points="630,150 690,195 670,265 590,265 570,195" fill="none" stroke="#C6D7EA" stroke-width="1" stroke-opacity="0.4"/>
  <polygon points="630,170 670,200 655,250 605,250 590,200" fill="none" stroke="#C6D7EA" stroke-width="1" stroke-opacity="0.2"/>
  <polygon points="630,155 685,198 662,260 595,258 578,198" fill="#3300FF" fill-opacity="0.35" stroke="#3300FF" stroke-width="2"/>
  <circle cx="630" cy="155" r="3" fill="#C6D7EA"/>
  <circle cx="685" cy="198" r="3" fill="#C6D7EA"/>
  <circle cx="662" cy="260" r="3" fill="#C6D7EA"/>
  <circle cx="595" cy="258" r="3" fill="#C6D7EA"/>
  <circle cx="578" cy="198" r="3" fill="#C6D7EA"/>

  <text x="630" y="142" fill="#C6D7EA" font-family="'IBM Plex Mono', monospace" font-size="9" text-anchor="middle">AGENTS</text>
  <text x="705" y="200" fill="#C6D7EA" font-family="'IBM Plex Mono', monospace" font-size="9">OLAP</text>
  <text x="670" y="280" fill="#C6D7EA" font-family="'IBM Plex Mono', monospace" font-size="9">SECURITY</text>
  <text x="560" y="280" fill="#C6D7EA" font-family="'IBM Plex Mono', monospace" font-size="9">INFRA</text>
  <text x="535" y="200" fill="#C6D7EA" font-family="'IBM Plex Mono', monospace" font-size="9">EVAL</text>

  <rect x="520" y="310" width="220" height="35" fill="#3300FF" fill-opacity="0.2" stroke="#3300FF" stroke-width="1"/>
  <text x="530" y="332" fill="#C6D7EA" font-family="'IBM Plex Mono', monospace" font-size="10" font-weight="600">TEST STATUS: ACTIVE TRIAL</text>
  <rect x="520" y="355" width="220" height="35" fill="#012148" stroke="#C6D7EA" stroke-width="1"/>
  <text x="530" y="377" fill="#C6D7EA" font-family="'IBM Plex Mono', monospace" font-size="10">COHORT 01 // 2026</text>
</svg>
